# xmcd
#
# Track frame offsets:
#	150
#	16044
#	33266
#	46959
#	59916
#	81834
#	108881
#	119439
#	134929
#	155344
#	168189
#	179238
#	194160
#
# Disc length: 2802 seconds
#
# Revision: 0
# Processed by: cddbd v1.4PL0 Copyright (c) Steve Scherf et al.
# Submitted via: MusicManager 7.0.3.0 
#
DISCID=bb0af00d
DTITLE=Endless AvenuE - Next stop Austin texas
DYEAR=1996
DGENRE=country
TTITLE0=The struggle song
TTITLE1=Hole in my heart
TTITLE2=Still don't know
TTITLE3=Take your time
TTITLE4=Grandpa's bandana
TTITLE5=Lullabye
TTITLE6=New hat, new boots, but the same old blues
TTITLE7=King of rock n'roll
TTITLE8=Darling daughter
TTITLE9=Everybody's sweetheart
TTITLE10=Gone fishing in Bucksnort
TTITLE11=Smokey nights
TTITLE12=Pretty brown eyes
EXTD=
EXTT0=
EXTT1=
EXTT2=
EXTT3=
EXTT4=
EXTT5=
EXTT6=
EXTT7=
EXTT8=
EXTT9=
EXTT10=
EXTT11=
EXTT12=
PLAYORDER=
